<svg class="svg-icon" style="width: 1em; height: 1em;vertical-align: middle;fill: white;overflow: hidden;" viewBox="0 0 1024 1024" version="1.1" xmlns="http://www.w3.org/2000/svg"><path d="M89.293 512.047c0-116.772 47.293-222.408 123.796-298.921 76.518-76.58 182.185-123.863 298.926-123.863 116.736 0 222.403 47.37 298.891 123.863 76.493 76.513 123.802 182.149 123.802 298.921 0 116.68-47.314 222.372-123.802 298.89-76.488 76.431-182.154 123.802-298.89 123.802-116.741 0-222.408-47.37-298.926-123.802-76.503-76.518-123.796-182.212-123.796-298.89v0zM467.872 306.145c7.905-7.844 7.905-20.69 0-28.627-7.962-7.905-20.782-7.905-28.682 0l-220.165 220.17c-3.661 3.63-5.96 8.714-5.96 14.356 0 5.549 2.294 10.665 5.96 14.269v0l0.348 0.379 219.817 219.786c7.905 7.905 20.721 7.905 28.682 0 7.905-7.936 7.905-20.721 0-28.627l-185.585-185.615h508.396c11.186 0 20.254-9.068 20.255-20.199 0-11.249-9.068-20.311-20.254-20.311h-508.396l185.585-185.585zM512.015 894.198c105.523 0 201.073-42.808 270.239-111.944 69.14-69.166 111.928-164.721 111.928-270.212 0-105.58-42.788-201.134-111.928-270.3-69.166-69.13-164.716-111.908-270.239-111.908-105.548 0-201.078 42.778-270.239 111.918-69.166 69.166-111.913 164.716-111.912 270.3 0 105.492 42.747 201.042 111.913 270.213 69.161 69.125 164.684 111.933 270.239 111.933z"  /></svg>