<svg class="svg-icon" style="width: 1em; height: 1em; vertical-align: middle; fill: currentColor; overflow: hidden; color: white;" viewBox="0 0 1024 1024" xmlns="http://www.w3.org/2000/svg"><path d="M512 597.333333a42.666667 42.666667 0 1 0-42.666667-42.666666 42.666667 42.666667 0 0 0 42.666667 42.666666z m213.333333 0a42.666667 42.666667 0 1 0-42.666666-42.666666 42.666667 42.666667 0 0 0 42.666666 42.666666z m-213.333333 170.666667a42.666667 42.666667 0 1 0-42.666667-42.666667 42.666667 42.666667 0 0 0 42.666667 42.666667z m213.333333 0a42.666667 42.666667 0 1 0-42.666666-42.666667 42.666667 42.666667 0 0 0 42.666666 42.666667zM298.666667 597.333333a42.666667 42.666667 0 1 0-42.666667-42.666666 42.666667 42.666667 0 0 0 42.666667 42.666666zM810.666667 170.666667h-42.666667V128a42.666667 42.666667 0 0 0-85.333333 0v42.666667H341.333333V128a42.666667 42.666667 0 0 0-85.333333 0v42.666667H213.333333a128 128 0 0 0-128 128v512a128 128 0 0 0 128 128h597.333334a128 128 0 0 0 128-128V298.666667a128 128 0 0 0-128-128z m42.666666 640a42.666667 42.666667 0 0 1-42.666666 42.666666H213.333333a42.666667 42.666667 0 0 1-42.666666-42.666666v-384h682.666666z m0-469.333334H170.666667V298.666667a42.666667 42.666667 0 0 1 42.666666-42.666667h597.333334a42.666667 42.666667 0 0 1 42.666666 42.666667zM298.666667 768a42.666667 42.666667 0 1 0-42.666667-42.666667 42.666667 42.666667 0 0 0 42.666667 42.666667z"  /></svg>